<svg width="18" height="12" viewBox="0 0 18 12" fill="none" xmlns="http://www.w3.org/2000/svg">
<g id="Group">
<g id="Group_2">
<path id="Vector" d="M14.685 2.03714C14.685 1.19611 13.9339 0.507996 13.0158 0.507996H10.5118V2.03714H13.0158V4.06326L10.1112 7.38914H7.17323V3.56628H3.83465C1.99008 3.56628 0.496063 4.93487 0.496063 6.62457V8.91829H2.16535C2.16535 10.1875 3.28378 11.212 4.66929 11.212C6.0548 11.212 7.17323 10.1875 7.17323 8.91829H10.9124L14.685 4.59846V2.03714ZM4.66929 9.68286C4.21024 9.68286 3.83465 9.3388 3.83465 8.91829H5.50394C5.50394 9.3388 5.12835 9.68286 4.66929 9.68286Z" fill="black"/>
<path id="Vector_2" d="M7.17323 1.27255H3V2.8017H7.17323V1.27255Z" fill="black"/>
<path id="Vector_3" d="M14.685 6.62454C13.2995 6.62454 12.1811 7.64907 12.1811 8.91826C12.1811 10.1874 13.2995 11.212 14.685 11.212C16.0705 11.212 17.189 10.1874 17.189 8.91826C17.189 7.64907 16.0705 6.62454 14.685 6.62454ZM14.685 9.68283C14.226 9.68283 13.8504 9.33877 13.8504 8.91826C13.8504 8.49774 14.226 8.15369 14.685 8.15369C15.1441 8.15369 15.5197 8.49774 15.5197 8.91826C15.5197 9.33877 15.1441 9.68283 14.685 9.68283Z" fill="black"/>
</g>
</g>
</svg>
